<svg width="96" height="96" viewBox="0 0 96 96" fill="none" xmlns="http://www.w3.org/2000/svg">
<circle cx="48" cy="48" r="48" fill="white"/>
<g clip-path="url(#clip0_201_203)">
<path d="M79.8562 59.4659C79.8134 59.189 79.7648 58.8752 79.7186 58.5219L77.9869 45.2318C77.8208 42.901 77.2264 40.9859 76.1695 39.3794C74.8232 37.3332 72.7225 35.8076 69.9192 34.8381C68.5105 30.1238 64.2585 26.8909 59.3439 26.8909C56.6418 26.8909 54.0901 27.8844 52.0013 29.7214C49.9994 26.2544 46.6196 24.2357 42.6697 24.2357C38.3874 24.2357 34.6782 26.6659 33.3346 30.181C32.8711 30.0828 32.3897 30.0335 31.8937 30.0335C29.6201 30.0335 27.1995 31.1084 25.4185 32.9087C23.8273 34.5175 22.8723 36.5453 22.6749 38.6982C20.3048 39.5929 18.7761 41.3815 18.7862 43.3448L18.7905 44.1475L17.542 50.6701C17.5413 50.6728 17.5408 50.6755 17.5403 50.6782L16.2351 57.4974C15.926 59.1119 15.8531 60.3413 16.4436 61.4801C16.9545 62.4654 17.8372 63.1499 19.1732 64.186L19.4422 64.3949C22.7453 66.9612 27.2335 68.9071 32.7832 70.1778C37.3367 71.2206 42.5085 71.7643 47.8267 71.7643C48.3282 71.7643 48.8314 71.7594 49.3352 71.7497C61.2361 71.5203 72.1461 68.6472 77.8071 64.2516C80.1045 62.468 80.19 61.6211 79.8562 59.4659ZM24.2035 40.8343C24.7595 40.6896 25.1454 40.1847 25.139 39.6102C25.1192 37.7854 25.8503 36.0301 27.1976 34.6678C28.5186 33.3322 30.2744 32.535 31.8942 32.535C32.5322 32.535 33.122 32.6594 33.6477 32.9045C33.9968 33.0672 34.4011 33.0602 34.7443 32.8854C35.0875 32.7105 35.3308 32.3875 35.4042 32.0095C36.0765 28.5481 39.5682 26.7372 42.6702 26.7372C46.1593 26.7372 49.0831 28.8261 50.4917 32.3252C50.6552 32.7314 51.0192 33.0224 51.4513 33.0927C51.8838 33.1631 52.3207 33.0022 52.6047 32.6687C54.4024 30.556 56.796 29.3924 59.3444 29.3924C63.3275 29.3924 66.7501 32.151 67.6678 36.1007C67.7691 36.5365 68.0953 36.8851 68.5236 37.0148C74.0395 38.6853 75.187 42.1037 75.461 45.0239C74.0222 46.975 70.7664 49.003 66.6273 50.5091C62.9276 51.8555 56.7244 53.4601 48.1836 53.4601C32.7885 53.4601 21.8883 48.675 21.2932 44.183L21.2887 43.3318C21.2832 42.342 22.5364 41.2684 24.2035 40.8343ZM77.4806 61.117C77.3595 61.4324 76.5705 62.0453 76.2733 62.276C70.5421 66.7261 59.1757 69.2752 47.8072 69.2748C37.4391 69.2746 27.0689 67.1536 20.9781 62.4198L20.7068 62.2093C18.2921 60.3368 18.246 60.301 18.6926 57.9677L19.5865 53.2976C21.1032 54.4818 22.8847 55.5139 24.9818 56.4236C25.1439 56.4939 25.3128 56.5273 25.4789 56.5273C25.962 56.5273 26.4224 56.2457 26.627 55.7739C26.9019 55.1403 26.611 54.4036 25.9774 54.1288C23.5837 53.0905 21.6636 51.8925 20.1261 50.4793L20.5796 48.1099C22.1758 49.922 24.7897 51.54 28.2854 52.8387C33.7056 54.8526 40.772 55.9616 48.1834 55.9616C57.0887 55.9616 63.5936 54.2748 67.4825 52.8598C70.9812 51.5868 73.8849 49.9695 75.8557 48.2339L77.2384 58.845C77.2884 59.228 77.3393 59.5577 77.3844 59.8484C77.4816 60.4773 77.5519 60.9314 77.4806 61.117Z" fill="#4D6BFC"/>
<path d="M29.3597 55.3947C29.3371 55.3877 29.3127 55.3808 29.2902 55.3752C28.6206 55.2077 27.941 55.6151 27.7735 56.2852C27.61 56.939 27.9939 57.6013 28.6351 57.7887C28.7536 57.8238 28.8733 57.8405 28.9911 57.8405C29.5292 57.8405 30.026 57.4907 30.1886 56.9489C30.386 56.2907 30.0154 55.5971 29.3597 55.3947Z" fill="#4D6BFC"/>
<path d="M65.8402 36.5255C65.2988 34.1952 63.655 32.3592 61.4434 31.6143C61.1061 31.5007 60.7615 31.4136 60.4188 31.3553C60.2886 31.3332 60.1564 31.3148 60.0254 31.3007C59.3385 31.2276 58.7219 31.7234 58.6478 32.4102C58.5736 33.0969 59.0703 33.7137 59.7571 33.7878C59.8375 33.7964 59.919 33.8078 59.999 33.8214C60.2134 33.8579 60.4306 33.9128 60.6446 33.985C62.0492 34.4579 63.0547 35.5903 63.4035 37.0915C63.5376 37.6693 64.0521 38.0595 64.6207 38.0595C64.7143 38.0595 64.8097 38.0489 64.9047 38.0269C65.5777 37.8704 65.9965 37.1983 65.8402 36.5255Z" fill="#4D6BFC"/>
<path d="M57.5358 32.7105C57.1664 32.1268 56.3938 31.953 55.8101 32.3223L55.7693 32.3486C55.1936 32.7263 55.0353 33.496 55.4106 34.0732C55.6497 34.4412 56.0512 34.6409 56.4609 34.6409C56.6939 34.6409 56.9298 34.5763 57.1399 34.4411L57.1478 34.4361C57.7315 34.0668 57.9053 33.2941 57.5358 32.7105Z" fill="#4D6BFC"/>
<path d="M32.7057 39.6918C30.6367 39.6918 28.9535 41.375 28.9535 43.444C28.9535 45.513 30.6367 47.1962 32.7057 47.1962C34.7747 47.1962 36.458 45.513 36.458 43.444C36.458 41.375 34.7747 39.6918 32.7057 39.6918ZM32.7057 44.6949C32.0161 44.6949 31.455 44.1337 31.455 43.4441C31.455 42.7545 32.0162 42.1934 32.7057 42.1934C33.3954 42.1934 33.9565 42.7545 33.9565 43.4441C33.9565 44.1337 33.3954 44.6949 32.7057 44.6949Z" fill="#4D6BFC"/>
<path d="M57.4339 39.9307C55.0184 39.9307 53.0534 41.8959 53.0534 44.3113C53.0534 46.7267 55.0187 48.6919 57.4339 48.6919C59.8495 48.6919 61.8145 46.7266 61.8145 44.3113C61.8145 41.8958 59.8493 39.9307 57.4339 39.9307ZM57.4339 46.1905C56.3978 46.1905 55.5549 45.3475 55.5549 44.3114C55.5549 43.2753 56.3978 42.4323 57.4339 42.4323C58.47 42.4323 59.313 43.2753 59.313 44.3114C59.313 45.3475 58.47 46.1905 57.4339 46.1905Z" fill="#4D6BFC"/>
<path d="M44.793 32.3071C42.724 32.3071 41.0408 33.9904 41.0408 36.0594C41.0408 38.1283 42.724 39.8116 44.793 39.8116C46.862 39.8116 48.5452 38.1283 48.5452 36.0594C48.5452 33.9904 46.862 32.3071 44.793 32.3071ZM44.793 37.3102C44.1034 37.3102 43.5423 36.7491 43.5423 36.0595C43.5423 35.3699 44.1034 34.8087 44.793 34.8087C45.4826 34.8087 46.0437 35.3699 46.0437 36.0595C46.0437 36.7491 45.4826 37.3102 44.793 37.3102Z" fill="#4D6BFC"/>
</g>
<defs>
<clipPath id="clip0_201_203">
<rect width="64" height="64" fill="white" transform="translate(16.0001 16.0001)"/>
</clipPath>
</defs>
</svg>
