<svg width="144" height="144" viewBox="0 0 144 144" fill="none" xmlns="http://www.w3.org/2000/svg">
<circle cx="72" cy="72" r="72" fill="white"/>
<path d="M72.0001 70.6558C64.9681 70.6558 59.2471 76.3965 59.2471 83.4529C59.2471 90.5093 64.9681 96.25 72.0001 96.25C79.0321 96.25 84.7531 90.5091 84.7531 83.4529C84.7531 76.3967 79.0321 70.6558 72.0001 70.6558ZM72.0001 92.5C67.0358 92.5 62.9971 88.4413 62.9971 83.4529C62.9971 78.4643 67.0356 74.4058 72.0001 74.4058C76.9645 74.4058 81.0031 78.4643 81.0031 83.4529C81.0031 88.4415 76.9643 92.5 72.0001 92.5Z" fill="#4D6BFC"/>
<path d="M71.9998 49.3942C67.9494 49.3942 64.6543 52.895 64.6543 57.1979C64.6543 61.5008 67.9494 65.0017 71.9998 65.0017C76.0502 65.0017 79.3453 61.501 79.3453 57.1979C79.3453 52.8948 76.0502 49.3942 71.9998 49.3942ZM71.9998 61.2515C70.0172 61.2515 68.4043 59.4331 68.4043 57.1977C68.4043 54.9625 70.0172 53.144 71.9998 53.144C73.9824 53.144 75.5953 54.9623 75.5953 57.1977C75.5953 59.4331 73.9824 61.2515 71.9998 61.2515Z" fill="#4D6BFC"/>
<path d="M88.0574 56.805C84.007 56.805 80.7119 60.3056 80.7119 64.6087C80.7119 68.9117 84.007 72.4123 88.0574 72.4123C92.1078 72.4123 95.4029 68.9117 95.4029 64.6087C95.4029 60.3056 92.1076 56.805 88.0574 56.805ZM88.0574 68.6623C86.0748 68.6623 84.4619 66.8439 84.4619 64.6087C84.4619 62.3735 86.0748 60.555 88.0574 60.555C90.04 60.555 91.6529 62.3734 91.6529 64.6087C91.6527 66.8439 90.0399 68.6623 88.0574 68.6623Z" fill="#4D6BFC"/>
<path d="M55.9427 56.805C51.8923 56.805 48.5972 60.3056 48.5972 64.6087C48.5972 68.9117 51.8923 72.4123 55.9427 72.4123C59.993 72.4123 63.2882 68.9115 63.2882 64.6087C63.2882 60.3058 59.993 56.805 55.9427 56.805ZM55.9427 68.6623C53.96 68.6623 52.3472 66.8439 52.3472 64.6087C52.3472 62.3735 53.96 60.555 55.9427 60.555C57.9253 60.555 59.5382 62.3734 59.5382 64.6087C59.5382 66.8439 57.9253 68.6623 55.9427 68.6623Z" fill="#4D6BFC"/>
<path d="M108.897 47.0625H96.9375V35.1032C96.9375 28.9809 91.9567 24 85.8343 24H58.1657C52.0432 24 47.0625 28.9809 47.0625 35.1032V47.0625H35.1032C28.9809 47.0625 24 52.0432 24 58.1657V85.8343C24 91.9566 28.9809 96.9375 35.1032 96.9375H47.0625V108.897C47.0625 115.019 52.0432 120 58.1657 120H85.8343C91.9567 120 96.9375 115.019 96.9375 108.897V96.9375H108.897C115.019 96.9375 120 91.9566 120 85.8343V58.1657C120 52.0432 115.019 47.0625 108.897 47.0625ZM116.25 85.8343C116.25 89.8888 112.951 93.1875 108.897 93.1875H95.0625C94.0269 93.1875 93.1875 94.0269 93.1875 95.0625V108.897C93.1875 112.951 89.8888 116.25 85.8343 116.25H58.1657C54.1112 116.25 50.8125 112.951 50.8125 108.897V95.0625C50.8125 94.0269 49.9731 93.1875 48.9375 93.1875H35.1032C31.0487 93.1875 27.75 89.8888 27.75 85.8343V58.1657C27.75 54.1112 31.0487 50.8125 35.1032 50.8125H48.9375C49.9731 50.8125 50.8125 49.9731 50.8125 48.9375V35.1032C50.8125 31.0487 54.1112 27.75 58.1657 27.75H85.8343C89.8888 27.75 93.1875 31.0487 93.1875 35.1032V48.9375C93.1875 49.9731 94.0269 50.8125 95.0625 50.8125H108.897C112.951 50.8125 116.25 54.1112 116.25 58.1657V85.8343Z" fill="#4D6BFC"/>
<path d="M81 107.022H68.6338C67.5982 107.022 66.7588 107.861 66.7588 108.897C66.7588 109.932 67.5982 110.772 68.6338 110.772H81C82.0355 110.772 82.875 109.932 82.875 108.897C82.875 107.861 82.0355 107.022 81 107.022Z" fill="#4D6BFC"/>
<path d="M63.0608 107.022H63C61.9644 107.022 61.125 107.861 61.125 108.897C61.125 109.932 61.9644 110.772 63 110.772H63.0608C64.0963 110.772 64.9358 109.932 64.9358 108.897C64.9358 107.861 64.0963 107.022 63.0608 107.022Z" fill="#4D6BFC"/>
<path d="M81.0002 33.2281H80.9395C79.9039 33.2281 79.0645 34.0676 79.0645 35.1032C79.0645 36.1387 79.9039 36.9782 80.9395 36.9782H81.0002C82.0358 36.9782 82.8752 36.1387 82.8752 35.1032C82.8752 34.0676 82.0358 33.2281 81.0002 33.2281Z" fill="#4D6BFC"/>
<path d="M75.3662 33.2281H63C61.9644 33.2281 61.125 34.0676 61.125 35.1032C61.125 36.1387 61.9644 36.9782 63 36.9782H75.3662C76.4018 36.9782 77.2412 36.1387 77.2412 35.1032C77.2412 34.0676 76.4018 33.2281 75.3662 33.2281Z" fill="#4D6BFC"/>
</svg>
