<svg width="144" height="144" viewBox="0 0 144 144" fill="none" xmlns="http://www.w3.org/2000/svg">
<circle cx="72" cy="72" r="72" fill="white"/>
<g clip-path="url(#clip0_77_472)">
<path d="M115.861 44.8559C113.188 42.1827 109.633 40.7106 105.853 40.7106C105.162 40.7106 104.478 40.7598 103.803 40.8576C104.449 36.4947 103.025 32.02 99.8008 28.7961C97.1273 26.1226 93.5726 24.6501 89.7915 24.6501C86.0104 24.6501 82.4557 26.1226 79.7822 28.796C77.2761 31.3019 75.8091 34.6306 75.6508 38.1687C75.5196 41.1055 76.2962 43.979 77.8577 46.4211L46.5461 77.7331C44.1272 75.947 41.2071 74.98 38.1544 74.98C34.3736 74.98 30.8192 76.4523 28.146 79.1256C25.4726 81.7992 24 85.3538 24 89.135C24 92.9161 25.4726 96.4707 28.146 99.1443C30.8192 101.817 34.3733 103.29 38.154 103.29C38.8447 103.29 39.5286 103.24 40.2034 103.143C39.5578 107.505 40.9819 111.98 44.2057 115.204C46.8793 117.878 50.4338 119.35 54.2151 119.35C57.996 119.35 61.5508 117.878 64.2244 115.204C66.8619 112.566 68.334 109.06 68.3694 105.331C68.3989 102.228 67.4317 99.26 65.6171 96.8037L96.7298 65.6911C99.279 67.8462 102.475 69.0203 105.851 69.0203C109.632 69.0203 113.187 67.5479 115.861 64.8745C121.38 59.3551 121.38 50.375 115.861 44.8559ZM113.209 62.2225C111.244 64.1877 108.631 65.27 105.851 65.27C103.072 65.27 100.459 64.1877 98.4937 62.2225C98.3634 62.092 98.2318 61.9531 98.103 61.8093C97.7593 61.426 97.2729 61.201 96.7583 61.1871C96.2415 61.1735 95.7458 61.3715 95.3814 61.7356L61.7496 95.3673C61.0277 96.089 61.0159 97.2556 61.7229 97.9919C65.6151 102.045 65.5474 108.577 61.5724 112.552C59.607 114.517 56.994 115.6 54.2149 115.6C51.4356 115.6 48.8228 114.517 46.8576 112.552C43.8652 109.56 42.9821 105.102 44.6072 101.194C44.8988 100.493 44.7386 99.685 44.2018 99.148C43.8431 98.7892 43.3635 98.5988 42.8756 98.5988C42.6332 98.5988 42.3887 98.6459 42.156 98.7427C40.8848 99.2712 39.5383 99.5393 38.1542 99.5393C35.3752 99.5393 32.7628 98.4573 30.798 96.4925C28.8324 94.5269 27.7502 91.9141 27.7502 89.1348C27.7502 86.3557 28.8324 83.7426 30.7978 81.7773C32.7628 79.8121 35.3754 78.73 38.1544 78.73C40.8544 78.73 43.4126 79.7587 45.3579 81.6267C46.0941 82.3334 47.2607 82.322 47.9826 81.5999L81.6413 47.9414C82.3249 47.2578 82.3766 46.1665 81.7609 45.4212C78.3306 41.2692 78.6199 35.2617 82.434 31.4476C84.3994 29.4822 87.0124 28.4 89.7915 28.4C92.5708 28.4 95.1836 29.4822 97.149 31.4476C100.141 34.4399 101.024 38.8983 99.3992 42.806C99.1076 43.507 99.2677 44.315 99.8047 44.852C100.342 45.389 101.15 45.5489 101.851 45.2575C103.122 44.7288 104.469 44.4608 105.853 44.4608C108.632 44.4608 111.244 45.5429 113.209 47.5077C117.266 51.5646 117.266 58.1658 113.209 62.2225Z" fill="#4D6BFC"/>
<path d="M65.1152 71.0975C64.383 70.3654 63.1956 70.3654 62.4634 71.0975L53.7186 79.8422C52.9864 80.5744 52.9864 81.7616 53.7186 82.494C54.0848 82.8602 54.5644 83.0432 55.0444 83.0432C55.5242 83.0432 56.0042 82.86 56.3702 82.494L65.115 73.7494C65.8474 73.0172 65.8474 71.8301 65.1152 71.0975Z" fill="#4D6BFC"/>
<path d="M69.0989 67.1135C68.3667 66.3813 67.1792 66.3813 66.4471 67.1135L66.4041 67.1567C65.6719 67.8888 65.6719 69.0763 66.4041 69.8085C66.7703 70.1747 67.2501 70.3577 67.7299 70.3577C68.2097 70.3577 68.6896 70.1745 69.0557 69.8085L69.0987 69.7654C69.8311 69.0332 69.8311 67.8457 69.0989 67.1135Z" fill="#4D6BFC"/>
</g>
<defs>
<clipPath id="clip0_77_472">
<rect width="96" height="96" fill="white" transform="translate(24 24.0001)"/>
</clipPath>
</defs>
</svg>
